<svg id="Capa_1" enable-background="new 0 0 512 512" height="512" viewBox="0 0 512 512" width="512" xmlns="http://www.w3.org/2000/svg" xmlns:xlink="http://www.w3.org/1999/xlink"><linearGradient id="lg1"><stop offset="0" stop-color="#ff4747"/><stop offset="1" stop-color="#fff200"/></linearGradient><linearGradient id="SVGID_1_" gradientUnits="userSpaceOnUse" x1="74.98" x2="437.019" xlink:href="#lg1" y1="437.019" y2="74.98"/><radialGradient id="SVGID_2_" cx="282.027" cy="285.746" gradientUnits="userSpaceOnUse" r="299.508"><stop offset="0" stop-color="#ff4747"/><stop offset=".1237" stop-color="#ff6850" stop-opacity=".876"/><stop offset=".34" stop-color="#ff9c5e" stop-opacity=".66"/><stop offset=".5432" stop-color="#ffc569" stop-opacity=".457"/><stop offset=".7271" stop-color="#ffe271" stop-opacity=".273"/><stop offset=".8854" stop-color="#fff476" stop-opacity=".115"/><stop offset="1" stop-color="#fffa78" stop-opacity="0"/></radialGradient><radialGradient id="SVGID_3_" cx="202.929" cy="182.31" gradientUnits="userSpaceOnUse" r="348.96"><stop offset=".1281" stop-color="#fff200"/><stop offset=".1546" stop-color="#fff30a" stop-opacity=".97"/><stop offset=".2585" stop-color="#fff52c" stop-opacity=".851"/><stop offset=".3698" stop-color="#fff747" stop-opacity=".723"/><stop offset=".4893" stop-color="#fff85d" stop-opacity=".586"/><stop offset=".621" stop-color="#fff96c" stop-opacity=".435"/><stop offset=".7743" stop-color="#fffa75" stop-opacity=".259"/><stop offset="1" stop-color="#fffa78" stop-opacity="0"/></radialGradient><linearGradient id="lg2"><stop offset="0" stop-color="#ffcb00"/><stop offset="1" stop-color="#fffa78"/></linearGradient><linearGradient id="SVGID_4_" gradientUnits="userSpaceOnUse" x1="-125.506" x2="391.288" xlink:href="#lg2" y1="503.698" y2="-13.095"/><linearGradient id="SVGID_5_" gradientUnits="userSpaceOnUse" x1="2.897" x2="341.447" xlink:href="#lg1" y1="374.057" y2="35.507"/><linearGradient id="lg3"><stop offset="0" stop-color="#fffa78"/><stop offset="1" stop-color="#fff"/></linearGradient><linearGradient id="SVGID_6_" gradientUnits="userSpaceOnUse" x1="136.136" x2="240.733" xlink:href="#lg3" y1="240.266" y2="135.668"/><linearGradient id="SVGID_7_" gradientUnits="userSpaceOnUse" x1="111.53" x2="251.096" y1="264.881" y2="125.315"><stop offset="0" stop-color="#fff200"/><stop offset="1" stop-color="#fff"/></linearGradient><linearGradient id="SVGID_8_" gradientUnits="userSpaceOnUse" x1="149.937" x2="447.209" xlink:href="#lg3" y1="470.681" y2="173.41"/><linearGradient id="SVGID_9_" gradientUnits="userSpaceOnUse" x1="-27.505" x2="407.187" xlink:href="#lg3" y1="627.544" y2="192.852"/><linearGradient id="SVGID_10_" gradientUnits="userSpaceOnUse" x1="197.244" x2="333.933" xlink:href="#lg2" y1="484.044" y2="347.354"/><linearGradient id="SVGID_11_" gradientUnits="userSpaceOnUse" x1="231.016" x2="338" xlink:href="#lg2" y1="458.69" y2="351.706"/><linearGradient id="SVGID_12_" gradientUnits="userSpaceOnUse" x1="289.699" x2="399.056" xlink:href="#lg2" y1="459.193" y2="349.836"/><linearGradient id="SVGID_13_" gradientUnits="userSpaceOnUse" x1="329.341" x2="394.054" xlink:href="#lg2" y1="424.197" y2="359.484"/><g><circle cx="256" cy="256" fill="url(#SVGID_1_)" r="256"/><circle cx="256" cy="256" fill="url(#SVGID_2_)" r="256"/><circle cx="256" cy="256" fill="url(#SVGID_3_)" r="256"/><path d="m315.628 185.723c4.858-2.976 4.822-10.061-.055-13.081-11.391-7.045-14.437-22.282-6.704-33.068 3.311-4.616.576-11.185-5.03-12.119-13.103-2.174-21.65-15.093-18.612-28.103 1.294-5.57-3.655-10.606-9.131-9.279-12.805 3.093-25.489-5.476-27.471-18.674-.857-5.655-7.245-8.33-11.809-4.927-10.662 7.934-25.589 5.094-32.238-6.152-2.851-4.822-9.765-4.685-12.79.241-7.049 11.497-22.069 14.815-32.467 7.323-4.448-3.211-10.931-.319-11.978 5.31-2.422 13.156-15.35 22.021-28.065 19.369-5.436-1.13-10.538 3.98-9.402 9.415 2.667 12.712-6.185 25.653-19.336 28.093-5.628 1.056-8.513 7.544-5.299 11.986 7.498 10.388 4.187 25.414-7.305 32.477-4.925 3.032-5.061 9.946-.24 12.79 11.244 6.635 14.082 21.561 6.145 32.231-3.404 4.568-.734 10.952 4.92 11.804 13.196 1.969 21.758 14.648 18.654 27.457-1.332 5.478 3.7 10.424 9.271 9.126 13.014-3.049 25.927 5.491 28.089 18.597.928 5.606 7.496 8.338 12.116 5.025 10.795-7.741 26.032-4.702 33.07 6.689 3.017 4.877 10.105 4.911 13.084.05 6.96-11.345 22.188-14.352 33.026-6.486 4.642 3.37 11.19.663 12.088-4.995 2.094-13.21 15.007-21.834 28.022-18.723 5.575 1.333 10.594-3.687 9.262-9.261-3.111-13.015 5.511-25.927 18.718-28.016 5.658-.896 8.363-7.441 4.992-12.083-7.865-10.84-4.864-26.065 6.475-33.016z" fill="url(#SVGID_4_)"/><path d="m276.361 179.086c.045 44.146-35.78 79.969-79.93 79.944-44.141-.11-80.053-35.408-79.378-78.773.736-43.354 37.153-79.826 80.502-80.571 43.361-.684 78.681 35.264 78.806 79.4z" fill="url(#SVGID_5_)"/><path d="m245.725 179.116c-.052 27.169-22.088 49.209-49.255 49.27-27.163.04-49.115-21.676-48.78-48.55.347-26.869 22.608-49.155 49.472-49.508 26.868-.341 48.595 21.623 48.563 48.788z" fill="url(#SVGID_6_)"/><path d="m211.935 197.666c-27.128.091-48.964-21.589-48.551-48.529.025-1.753.147-3.483.353-5.191-9.683 9.068-15.88 21.827-16.047 35.891-.335 26.874 21.617 48.59 48.78 48.55 25.4-.059 46.318-19.329 48.966-44.047-8.78 8.217-20.56 13.269-33.501 13.326z" fill="url(#SVGID_7_)"/><path d="m466.209 316.036c-121.446 1.778-242.892 1.894-364.338.35-1.202 4.81-1.802 9.857-1.72 15.068.573 33.251 28.639 61.143 62.151 61.849 81.08 1.54 162.16 1.357 243.24-.549 33.511-.87 61.703-28.719 62.356-61.753.095-5.178-.497-10.189-1.689-14.965z" fill="url(#SVGID_8_)"/><path d="m161.81 362.784c81.447 1.193 162.895 1.052 244.342-.426 28.425-.552 52.844-20.383 60.057-46.323-5.245-21.009-22.219-37.572-43.836-42.999.029-.631.052-1.262.054-1.899.063-25.066-20.729-45.559-46.174-45.704-3.694-.016-7.281.414-10.721 1.218-19.464-28.497-52.212-47.55-89.17-47.566-54.126.015-99.426 40.781-106.582 92.781-2.843-.406-5.744-.63-8.698-.636-28.647-.02-52.725 19.234-59.211 45.155 7.16 26.094 31.51 45.952 59.939 46.399z" fill="url(#SVGID_9_)"/><path d="m314.429 387.501c.026.009-17.09-26.234-31.684-48.387-3.022-4.592-9.744-4.588-12.77.007-14.616 22.169-31.775 48.455-31.76 48.447-4.723 7.256-7.44 15.954-7.367 25.335.241 25.431 20.605 46.315 45.403 46.283 24.798-.039 45.217-20.967 45.509-46.379.09-9.375-2.61-18.063-7.331-25.306z" fill="url(#SVGID_10_)"/><path d="m283.819 436.107c-24.939.074-45.351-20.754-45.527-46.196-.005-.86.022-1.712.064-2.56-.086.132-.141.217-.141.217-4.723 7.256-7.44 15.954-7.367 25.335.241 25.431 20.605 46.315 45.403 46.283 23.971-.037 43.831-19.59 45.413-43.839-8.279 12.432-22.161 20.715-37.845 20.76z" fill="url(#SVGID_11_)"/><path d="m393.353 369.26c.014.005-11.244-17.221-20.844-31.81-1.989-3.024-6.467-2.983-8.513.084-9.867 14.781-21.586 32.432-21.583 32.432-3.228 4.874-5.142 10.697-5.207 16.94-.159 16.942 13.214 30.5 29.917 30.157 16.7-.345 30.607-14.339 30.962-31.13.126-6.195-1.624-11.916-4.732-16.673z" fill="url(#SVGID_12_)"/><path d="m374.989 401.638c-16.752.336-30.162-13.21-30.005-30.142.023-2.255.296-4.453.778-6.573-2.067 3.112-3.348 5.043-3.348 5.043-3.228 4.874-5.142 10.697-5.207 16.94-.159 16.942 13.214 30.5 29.917 30.157 14.853-.303 27.474-11.414 30.353-25.664-5.683 6.123-13.685 10.069-22.488 10.239z" fill="url(#SVGID_13_)"/></g></svg>