<svg id="Capa_1" enable-background="new 0 0 511.68 511.68" height="512" viewBox="0 0 511.68 511.68" width="512" xmlns="http://www.w3.org/2000/svg"><g><path d="m440.406 356.471c9.37-23.09 14.546-48.313 14.546-74.727 0-109.929-89.434-199.362-199.362-199.362s-199.362 89.434-199.362 199.363c0 26.413 5.176 51.636 14.546 74.727h369.632z" fill="#fdb441"/><path d="m397.5 356.471c11.776-22.316 18.452-47.74 18.452-74.727 0-88.566-71.797-160.363-160.363-160.363s-160.362 71.798-160.362 160.363c0 26.987 6.676 52.411 18.452 74.727z" fill="#fedf30"/><path d="m281.267 123.423c-8.357-1.344-16.94-2.041-25.677-2.041-88.566 0-160.363 71.797-160.363 160.363 0 26.987 6.676 52.411 18.452 74.727h51.328c-11.776-22.316-18.452-47.74-18.452-74.727 0-79.83 58.347-146.037 134.712-158.322z" fill="#fed402"/><g><path d="m188.966 400.25h-115.116c-4.143 0-7.5-3.357-7.5-7.5s3.357-7.5 7.5-7.5h115.116c4.143 0 7.5 3.357 7.5 7.5s-3.358 7.5-7.5 7.5z" fill="#a6e7f0"/></g><g><path d="m438.33 400.25h-115.116c-4.143 0-7.5-3.357-7.5-7.5s3.357-7.5 7.5-7.5h115.116c4.143 0 7.5 3.357 7.5 7.5s-3.357 7.5-7.5 7.5z" fill="#a6e7f0"/></g><g><path d="m334.578 449.891h-157.476c-4.143 0-7.5-3.357-7.5-7.5s3.357-7.5 7.5-7.5h157.477c4.143 0 7.5 3.357 7.5 7.5s-3.358 7.5-7.501 7.5z" fill="#a6e7f0"/></g><g><path d="m280.966 499.531h-50.252c-4.143 0-7.5-3.357-7.5-7.5s3.357-7.5 7.5-7.5h50.252c4.143 0 7.5 3.357 7.5 7.5s-3.358 7.5-7.5 7.5z" fill="#d4f2f6"/></g><g><path d="m256.09 55.685c-4.143 0-7.5-3.357-7.5-7.5v-28.536c0-4.143 3.357-7.5 7.5-7.5s7.5 3.357 7.5 7.5v28.536c0 4.143-3.358 7.5-7.5 7.5z" fill="#fedba6"/></g><g><path d="m30.648 274.316h-21.725c-4.143 0-7.5-3.357-7.5-7.5s3.357-7.5 7.5-7.5h21.726c4.143 0 7.5 3.357 7.5 7.5s-3.358 7.5-7.501 7.5z" fill="#fedba6"/></g><g><path d="m503.257 274.316h-21.726c-4.143 0-7.5-3.357-7.5-7.5s3.357-7.5 7.5-7.5h21.726c4.143 0 7.5 3.357 7.5 7.5s-3.358 7.5-7.5 7.5z" fill="#fedba6"/></g><g><path d="m165.971 72.881c-2.866 0-5.604-1.652-6.85-4.439l-11.635-26.005c-1.692-3.78.002-8.217 3.783-9.908 3.779-1.691 8.218.002 9.908 3.783l11.635 26.005c1.692 3.78-.002 8.217-3.783 9.908-.994.445-2.035.656-3.058.656z" fill="#fedba6"/></g><g><path d="m50.021 177.978c-1.063 0-2.145-.228-3.172-.708l-19.653-9.188c-3.752-1.754-5.372-6.218-3.617-9.971 1.753-3.752 6.219-5.372 9.971-3.617l19.653 9.188c3.752 1.754 5.372 6.218 3.617 9.971-1.273 2.724-3.977 4.325-6.799 4.325z" fill="#fedba6"/></g><g><path d="m95.979 112.793c-1.931 0-3.86-.74-5.326-2.22l-46.09-46.495c-2.916-2.942-2.896-7.69.046-10.606 2.942-2.917 7.691-2.896 10.606.046l46.09 46.495c2.916 2.942 2.896 7.69-.046 10.606-1.463 1.451-3.372 2.174-5.28 2.174z" fill="#fec165"/></g><g><path d="m346.209 72.881c-1.024 0-2.064-.211-3.059-.656-3.781-1.691-5.476-6.128-3.783-9.908l11.635-26.005c1.691-3.782 6.133-5.475 9.908-3.783 3.781 1.691 5.476 6.128 3.783 9.908l-11.635 26.005c-1.245 2.786-3.983 4.439-6.849 4.439z" fill="#fedba6"/></g><g><path d="m462.158 177.978c-2.822 0-5.525-1.601-6.799-4.325-1.755-3.753-.135-8.217 3.617-9.971l19.653-9.188c3.753-1.757 8.217-.135 9.971 3.617 1.755 3.753.135 8.217-3.617 9.971l-19.653 9.188c-1.027.48-2.108.708-3.172.708z" fill="#fdb97e"/></g><g><path d="m416.201 112.793c-1.909 0-3.817-.724-5.28-2.174-2.941-2.916-2.962-7.664-.046-10.606l46.09-46.495c2.916-2.94 7.665-2.961 10.606-.046 2.941 2.916 2.962 7.664.046 10.606l-46.09 46.495c-1.465 1.479-3.396 2.22-5.326 2.22z" fill="#fec165"/></g><g id="XMLID_207_"><g><path d="m308.28 301.986c5.7 0 8.67 6.78 4.81 10.97l-40.17 43.52h-34.66l-40.17-43.52c-3.86-4.19-.89-10.97 4.81-10.97h27.31v-69.1c0-3.27 2.66-5.93 5.93-5.93h37.9c3.27 0 5.93 2.66 5.93 5.93v69.1z" fill="#f37c7c"/></g><g><g><path d="m504.18 363.976h-496.68c-4.143 0-7.5-3.357-7.5-7.5s3.357-7.5 7.5-7.5h496.68c4.143 0 7.5 3.357 7.5 7.5s-3.358 7.5-7.5 7.5z" fill="#6bd9e7"/></g></g></g></g></svg>